<?xml version="1.0" encoding="utf-8"?>
<!-- Generator: Adobe Illustrator 16.0.0, SVG Export Plug-In . SVG Version: 6.00 Build 0)  -->
<!DOCTYPE svg PUBLIC "-//W3C//DTD SVG 1.1//EN" "http://www.w3.org/Graphics/SVG/1.1/DTD/svg11.dtd">
<svg version="1.1" id="Layer_4" xmlns="http://www.w3.org/2000/svg" xmlns:xlink="http://www.w3.org/1999/xlink" x="0px" y="0px"
	 width="100px" height="200px" viewBox="0 0 100 200" enable-background="new 0 0 100 200" xml:space="preserve">
<polygon class="seg0" fill="#1C75BC" points="32.107,106.978 22.92,100.198 32.088,93.42 67.893,93.42 77.078,100.199 67.893,106.978 "/>
<rect x="32.778" y="147.193" fill="#1C75BC" width="34.443" height="13.558"/>
<polygon fill="#1C75BC" points="17.221,160.751 17.221,101.199 20.908,101.199 30.778,108.482 30.778,160.751 "/>
<polygon fill="#1C75BC" points="69.222,160.751 69.222,108.482 79.092,101.199 82.779,101.199 82.779,160.751 "/>
<polygon fill="#1C75BC" points="17.221,99.199 17.221,39.647 30.778,39.647 30.778,91.916 20.908,99.199 "/>
<polygon fill="#1C75BC" points="79.092,99.199 69.222,91.915 69.222,39.646 82.779,39.646 82.779,99.199 "/>
<rect x="32.778" y="39.647" fill="#1C75BC" width="34.443" height="13.558"/>
</svg>
